<svg width="5566" height="2317" viewBox="0 0 5566 2317" fill="none" xmlns="http://www.w3.org/2000/svg">
<path d="M48.0781 1420C34.7448 1420 23.4115 1415.33 14.0781 1406C4.7448 1396.67 0.078125 1385.33 0.078125 1372V430C0.078125 415.333 4.7448 403.333 14.0781 394C23.4115 384.667 34.7448 380 48.0781 380H210.078C223.411 380 234.745 384.667 244.078 394C254.745 403.333 260.078 415.333 260.078 430V512C290.745 469.333 330.078 436.667 378.078 414C427.412 391.333 484.078 380 548.078 380H630.078C644.745 380 656.078 384.667 664.078 394C673.412 403.333 678.078 414.667 678.078 428V572C678.078 585.333 673.412 596.667 664.078 606C656.078 615.333 644.745 620 630.078 620H474.078C410.078 620 360.078 638 324.078 674C289.411 710 272.078 759.333 272.078 822V1372C272.078 1385.33 267.411 1396.67 258.078 1406C248.745 1415.33 236.745 1420 222.078 1420H48.0781Z" fill="black"/>
<path d="M870.062 1420C856.729 1420 845.396 1415.33 836.062 1406C826.729 1396.67 822.062 1385.33 822.062 1372V1174C822.062 1159.33 826.729 1147.33 836.062 1138C845.396 1128.67 856.729 1124 870.062 1124H1070.06C1083.4 1124 1094.73 1128.67 1104.06 1138C1113.4 1147.33 1118.06 1159.33 1118.06 1174V1372C1118.06 1385.33 1113.4 1396.67 1104.06 1406C1094.73 1415.33 1083.4 1420 1070.06 1420H870.062Z" fill="#2B65EC"/>
<path d="M1945.22 1440C1867.89 1440 1803.22 1426.67 1751.22 1400C1700.55 1373.33 1658.55 1339.33 1625.22 1298V1372C1625.22 1385.33 1620.55 1396.67 1611.22 1406C1603.22 1415.33 1591.89 1420 1577.22 1420H1419.22C1405.89 1420 1394.55 1415.33 1385.22 1406C1375.89 1396.67 1371.22 1385.33 1371.22 1372V48C1371.22 34.6667 1375.89 23.3334 1385.22 14.0001C1394.55 4.66669 1405.89 0 1419.22 0H1589.22C1603.89 0 1615.22 4.66669 1623.22 14.0001C1632.55 23.3334 1637.22 34.6667 1637.22 48V492C1670.55 453.333 1711.89 422 1761.22 398C1811.89 372.667 1873.22 360 1945.22 360C2015.89 360 2077.22 372 2129.22 396C2181.22 420 2224.55 454 2259.22 498C2295.22 540.667 2322.55 590.667 2341.22 648C2359.89 705.333 2369.89 767.333 2371.22 834C2372.55 858 2373.22 880 2373.22 900C2373.22 918.667 2372.55 940 2371.22 964C2368.55 1033.33 2357.89 1097.33 2339.22 1156C2320.55 1213.33 2293.89 1263.33 2259.22 1306C2224.55 1348.67 2181.22 1382 2129.22 1406C2077.22 1428.67 2015.89 1440 1945.22 1440ZM1871.22 1226C1928.55 1226 1973.22 1214 2005.22 1190C2037.22 1164.67 2059.89 1132 2073.22 1092C2087.89 1052 2096.55 1008 2099.22 960C2101.89 920 2101.89 880 2099.22 840C2096.55 792 2087.89 748 2073.22 708C2059.89 668 2037.22 636 2005.22 612C1973.22 586.667 1928.55 574 1871.22 574C1817.89 574 1774.55 586 1741.22 610C1707.89 634 1682.55 664.667 1665.22 702C1647.89 738 1638.55 776 1637.22 816C1635.89 840 1635.22 866 1635.22 894C1635.22 920.667 1635.89 946 1637.22 970C1639.89 1011.33 1648.55 1052 1663.22 1092C1679.22 1130.67 1703.89 1162.67 1737.22 1188C1771.89 1213.33 1816.55 1226 1871.22 1226Z" fill="black"/>
<path d="M2742.77 1800C2732.1 1800 2722.77 1796 2714.77 1788C2706.77 1780 2702.77 1770.67 2702.77 1760C2702.77 1754.67 2702.77 1749.33 2702.77 1744C2704.1 1740 2706.77 1734.67 2710.77 1728L2866.77 1358L2482.77 452C2477.43 438.667 2474.77 429.333 2474.77 424C2476.1 412 2480.77 402 2488.77 394C2496.77 384.667 2506.77 380 2518.77 380H2680.77C2696.77 380 2708.77 384 2716.77 392C2724.77 400 2730.77 408.667 2734.77 418L3000.77 1072L3274.77 418C3278.77 407.333 3284.77 398.667 3292.77 392C3300.77 384 3312.77 380 3328.77 380H3488.77C3499.43 380 3508.77 384 3516.77 392C3526.1 400 3530.77 409.333 3530.77 420C3530.77 428 3528.1 438.667 3522.77 452L2956.77 1762C2951.43 1772.67 2944.77 1781.33 2936.77 1788C2928.77 1796 2916.77 1800 2900.77 1800H2742.77Z" fill="black"/>
<path d="M4173.2 1420C4093.2 1420 4025.87 1406 3971.2 1378C3916.54 1350 3875.87 1308.67 3849.2 1254C3822.54 1198 3809.2 1128.67 3809.2 1046V592H3651.2C3637.87 592 3626.54 587.333 3617.2 578C3607.87 568.667 3603.2 557.333 3603.2 544V428C3603.2 414.667 3607.87 403.333 3617.2 394C3626.54 384.667 3637.87 380 3651.2 380H3809.2V48C3809.2 34.6667 3813.2 23.3334 3821.2 14.0001C3830.54 4.66669 3842.54 0 3857.2 0H4019.2C4032.54 0 4043.87 4.66669 4053.2 14.0001C4062.54 23.3334 4067.2 34.6667 4067.2 48V380H4317.2C4330.54 380 4341.87 384.667 4351.2 394C4360.54 403.333 4365.2 414.667 4365.2 428V544C4365.2 557.333 4360.54 568.667 4351.2 578C4341.87 587.333 4330.54 592 4317.2 592H4067.2V1026C4067.2 1080.67 4076.54 1123.33 4095.2 1154C4115.2 1184.67 4149.2 1200 4197.2 1200H4335.2C4348.54 1200 4359.87 1204.67 4369.2 1214C4378.54 1223.33 4383.2 1234.67 4383.2 1248V1372C4383.2 1385.33 4378.54 1396.67 4369.2 1406C4359.87 1415.33 4348.54 1420 4335.2 1420H4173.2Z" fill="black"/>
<path d="M5008.62 1440C4860.62 1440 4743.29 1397.33 4656.62 1312C4569.96 1226.67 4523.29 1105.33 4516.62 948C4515.29 934.667 4514.62 918 4514.62 898C4514.62 876.667 4515.29 860 4516.62 848C4521.96 748 4544.62 661.333 4584.62 588C4625.96 514.667 4682.62 458.667 4754.62 420C4826.63 380 4911.29 360 5008.62 360C5116.62 360 5207.29 382.667 5280.62 428C5353.96 472 5409.29 534 5446.62 614C5483.96 692.667 5502.62 784 5502.62 888V930C5502.62 943.333 5497.96 954.667 5488.62 964C5479.29 973.333 5467.29 978 5452.62 978H4788.62C4788.62 978 4788.62 980 4788.62 984C4788.62 988 4788.62 991.333 4788.62 994C4789.96 1040.67 4798.63 1084 4814.62 1124C4831.96 1162.67 4856.63 1194 4888.62 1218C4921.96 1242 4961.29 1254 5006.62 1254C5043.96 1254 5075.29 1248.67 5100.62 1238C5125.96 1226 5146.63 1212.67 5162.62 1198C5178.62 1183.33 5189.96 1171.33 5196.62 1162C5208.63 1146 5217.96 1136.67 5224.62 1134C5232.62 1130 5243.96 1128 5258.62 1128H5430.62C5443.96 1128 5454.63 1132 5462.62 1140C5471.96 1148 5475.96 1158 5474.62 1170C5473.29 1191.33 5461.96 1217.33 5440.62 1248C5420.62 1278.67 5391.29 1308.67 5352.62 1338C5313.96 1367.33 5265.29 1392 5206.62 1412C5149.29 1430.67 5083.29 1440 5008.62 1440ZM4788.62 810H5230.62V804C5230.62 752 5221.96 706.667 5204.62 668C5187.29 629.333 5161.96 598.667 5128.62 576C5095.29 553.333 5055.29 542 5008.62 542C4961.96 542 4921.96 553.333 4888.62 576C4855.29 598.667 4829.96 629.333 4812.62 668C4796.63 706.667 4788.62 752 4788.62 804V810Z" fill="black"/>
<path d="M871.375 2317C858.042 2317 846.708 2312.33 837.375 2303C828.042 2293.67 823.375 2282.33 823.375 2269V2071C823.375 2056.33 828.042 2044.33 837.375 2035C846.708 2025.67 858.042 2021 871.375 2021H1071.38C1084.71 2021 1096.04 2025.67 1105.38 2035C1114.71 2044.33 1119.38 2056.33 1119.38 2071V2269C1119.38 2282.33 1114.71 2293.67 1105.38 2303C1096.04 2312.33 1084.71 2317 1071.38 2317H871.375Z" fill="black"/>
<path d="M1506.53 2317C1493.2 2317 1481.86 2312.33 1472.53 2303C1463.2 2293.67 1458.53 2282.33 1458.53 2269V2071C1458.53 2056.33 1463.2 2044.33 1472.53 2035C1481.86 2025.67 1493.2 2021 1506.53 2021H1706.53C1719.86 2021 1731.2 2025.67 1740.53 2035C1749.86 2044.33 1754.53 2056.33 1754.53 2071V2269C1754.53 2282.33 1749.86 2293.67 1740.53 2303C1731.2 2312.33 1719.86 2317 1706.53 2317H1506.53Z" fill="#2B65EC"/>
<path d="M2141.69 2317C2128.35 2317 2117.02 2312.33 2107.69 2303C2098.35 2293.67 2093.69 2282.33 2093.69 2269V2071C2093.69 2056.33 2098.35 2044.33 2107.69 2035C2117.02 2025.67 2128.35 2021 2141.69 2021H2341.69C2355.02 2021 2366.35 2025.67 2375.69 2035C2385.02 2044.33 2389.69 2056.33 2389.69 2071V2269C2389.69 2282.33 2385.02 2293.67 2375.69 2303C2366.35 2312.33 2355.02 2317 2341.69 2317H2141.69Z" fill="black"/>
<path d="M2776.84 2317C2763.51 2317 2752.18 2312.33 2742.84 2303C2733.51 2293.67 2728.84 2282.33 2728.84 2269V2071C2728.84 2056.33 2733.51 2044.33 2742.84 2035C2752.18 2025.67 2763.51 2021 2776.84 2021H2976.84C2990.18 2021 3001.51 2025.67 3010.84 2035C3020.18 2044.33 3024.84 2056.33 3024.84 2071V2269C3024.84 2282.33 3020.18 2293.67 3010.84 2303C3001.51 2312.33 2990.18 2317 2976.84 2317H2776.84Z" fill="#2B65EC"/>
<path d="M3412 2317C3398.67 2317 3387.33 2312.33 3378 2303C3368.67 2293.67 3364 2282.33 3364 2269V2071C3364 2056.33 3368.67 2044.33 3378 2035C3387.33 2025.67 3398.67 2021 3412 2021H3612C3625.33 2021 3636.67 2025.67 3646 2035C3655.33 2044.33 3660 2056.33 3660 2071V2269C3660 2282.33 3655.33 2293.67 3646 2303C3636.67 2312.33 3625.33 2317 3612 2317H3412Z" fill="black"/>
<path d="M4047.16 2317C4033.82 2317 4022.49 2312.33 4013.16 2303C4003.82 2293.67 3999.16 2282.33 3999.16 2269V2071C3999.16 2056.33 4003.82 2044.33 4013.16 2035C4022.49 2025.67 4033.82 2021 4047.16 2021H4247.16C4260.49 2021 4271.82 2025.67 4281.16 2035C4290.49 2044.33 4295.16 2056.33 4295.16 2071V2269C4295.16 2282.33 4290.49 2293.67 4281.16 2303C4271.82 2312.33 4260.49 2317 4247.16 2317H4047.16Z" fill="black"/>
<path d="M4682.31 2317C4668.98 2317 4657.65 2312.33 4648.31 2303C4638.98 2293.67 4634.31 2282.33 4634.31 2269V2071C4634.31 2056.33 4638.98 2044.33 4648.31 2035C4657.65 2025.67 4668.98 2021 4682.31 2021H4882.31C4895.65 2021 4906.98 2025.67 4916.31 2035C4925.65 2044.33 4930.31 2056.33 4930.31 2071V2269C4930.31 2282.33 4925.65 2293.67 4916.31 2303C4906.98 2312.33 4895.65 2317 4882.31 2317H4682.31Z" fill="#2B65EC"/>
<path d="M5317.47 2317C5304.14 2317 5292.8 2312.33 5283.47 2303C5274.14 2293.67 5269.47 2282.33 5269.47 2269V2071C5269.47 2056.33 5274.14 2044.33 5283.47 2035C5292.8 2025.67 5304.14 2021 5317.47 2021H5517.47C5530.8 2021 5542.14 2025.67 5551.47 2035C5560.8 2044.33 5565.47 2056.33 5565.47 2071V2269C5565.47 2282.33 5560.8 2293.67 5551.47 2303C5542.14 2312.33 5530.8 2317 5517.47 2317H5317.47Z" fill="black"/>
</svg>
