<svg width="5566" height="2317" viewBox="0 0 5566 2317" fill="none" xmlns="http://www.w3.org/2000/svg">
<path d="M48 1420C34.6667 1420 23.3333 1415.33 14 1406C4.66667 1396.67 0 1385.33 0 1372V430C0 415.333 4.66667 403.333 14 394C23.3333 384.667 34.6667 380 48 380H210C223.333 380 234.667 384.667 244 394C254.667 403.333 260 415.333 260 430V512C290.667 469.333 330 436.667 378 414C427.333 391.333 484 380 548 380H630C644.667 380 656 384.667 664 394C673.333 403.333 678 414.667 678 428V572C678 585.333 673.333 596.667 664 606C656 615.333 644.667 620 630 620H474C410 620 360 638 324 674C289.333 710 272 759.333 272 822V1372C272 1385.33 267.333 1396.67 258 1406C248.667 1415.33 236.667 1420 222 1420H48Z" fill="white"/>
<path d="M869.984 1420C856.651 1420 845.318 1415.33 835.984 1406C826.651 1396.67 821.984 1385.33 821.984 1372V1174C821.984 1159.33 826.651 1147.33 835.984 1138C845.318 1128.67 856.651 1124 869.984 1124H1069.98C1083.32 1124 1094.65 1128.67 1103.98 1138C1113.32 1147.33 1117.98 1159.33 1117.98 1174V1372C1117.98 1385.33 1113.32 1396.67 1103.98 1406C1094.65 1415.33 1083.32 1420 1069.98 1420H869.984Z" fill="#2B65EC"/>
<path d="M1945.14 1440C1867.81 1440 1803.14 1426.67 1751.14 1400C1700.47 1373.33 1658.47 1339.33 1625.14 1298V1372C1625.14 1385.33 1620.47 1396.67 1611.14 1406C1603.14 1415.33 1591.81 1420 1577.14 1420H1419.14C1405.81 1420 1394.47 1415.33 1385.14 1406C1375.81 1396.67 1371.14 1385.33 1371.14 1372V48C1371.14 34.6667 1375.81 23.3334 1385.14 14.0001C1394.47 4.66669 1405.81 0 1419.14 0H1589.14C1603.81 0 1615.14 4.66669 1623.14 14.0001C1632.47 23.3334 1637.14 34.6667 1637.14 48V492C1670.47 453.333 1711.81 422 1761.14 398C1811.81 372.667 1873.14 360 1945.14 360C2015.81 360 2077.14 372 2129.14 396C2181.14 420 2224.47 454 2259.14 498C2295.14 540.667 2322.47 590.667 2341.14 648C2359.81 705.333 2369.81 767.333 2371.14 834C2372.47 858 2373.14 880 2373.14 900C2373.14 918.667 2372.47 940 2371.14 964C2368.47 1033.33 2357.81 1097.33 2339.14 1156C2320.47 1213.33 2293.81 1263.33 2259.14 1306C2224.47 1348.67 2181.14 1382 2129.14 1406C2077.14 1428.67 2015.81 1440 1945.14 1440ZM1871.14 1226C1928.47 1226 1973.14 1214 2005.14 1190C2037.14 1164.67 2059.81 1132 2073.14 1092C2087.81 1052 2096.47 1008 2099.14 960C2101.81 920 2101.81 880 2099.14 840C2096.47 792 2087.81 748 2073.14 708C2059.81 668 2037.14 636 2005.14 612C1973.14 586.667 1928.47 574 1871.14 574C1817.81 574 1774.47 586 1741.14 610C1707.81 634 1682.47 664.667 1665.14 702C1647.81 738 1638.47 776 1637.14 816C1635.81 840 1635.14 866 1635.14 894C1635.14 920.667 1635.81 946 1637.14 970C1639.81 1011.33 1648.47 1052 1663.14 1092C1679.14 1130.67 1703.81 1162.67 1737.14 1188C1771.81 1213.33 1816.47 1226 1871.14 1226Z" fill="white"/>
<path d="M2742.69 1800C2732.02 1800 2722.69 1796 2714.69 1788C2706.69 1780 2702.69 1770.67 2702.69 1760C2702.69 1754.67 2702.69 1749.33 2702.69 1744C2704.02 1740 2706.69 1734.67 2710.69 1728L2866.69 1358L2482.69 452C2477.35 438.667 2474.69 429.333 2474.69 424C2476.02 412 2480.69 402 2488.69 394C2496.69 384.667 2506.69 380 2518.69 380H2680.69C2696.69 380 2708.69 384 2716.69 392C2724.69 400 2730.69 408.667 2734.69 418L3000.69 1072L3274.69 418C3278.69 407.333 3284.69 398.667 3292.69 392C3300.69 384 3312.69 380 3328.69 380H3488.69C3499.35 380 3508.69 384 3516.69 392C3526.02 400 3530.69 409.333 3530.69 420C3530.69 428 3528.02 438.667 3522.69 452L2956.69 1762C2951.35 1772.67 2944.69 1781.33 2936.69 1788C2928.69 1796 2916.69 1800 2900.69 1800H2742.69Z" fill="white"/>
<path d="M4173.12 1420C4093.12 1420 4025.79 1406 3971.12 1378C3916.46 1350 3875.79 1308.67 3849.12 1254C3822.46 1198 3809.12 1128.67 3809.12 1046V592H3651.12C3637.79 592 3626.46 587.333 3617.12 578C3607.79 568.667 3603.12 557.333 3603.12 544V428C3603.12 414.667 3607.79 403.333 3617.12 394C3626.46 384.667 3637.79 380 3651.12 380H3809.12V48C3809.12 34.6667 3813.13 23.3334 3821.12 14.0001C3830.46 4.66669 3842.46 0 3857.12 0H4019.12C4032.46 0 4043.79 4.66669 4053.12 14.0001C4062.46 23.3334 4067.12 34.6667 4067.12 48V380H4317.12C4330.46 380 4341.79 384.667 4351.12 394C4360.46 403.333 4365.12 414.667 4365.12 428V544C4365.12 557.333 4360.46 568.667 4351.12 578C4341.79 587.333 4330.46 592 4317.12 592H4067.12V1026C4067.12 1080.67 4076.46 1123.33 4095.12 1154C4115.12 1184.67 4149.12 1200 4197.12 1200H4335.12C4348.46 1200 4359.79 1204.67 4369.12 1214C4378.46 1223.33 4383.12 1234.67 4383.12 1248V1372C4383.12 1385.33 4378.46 1396.67 4369.12 1406C4359.79 1415.33 4348.46 1420 4335.12 1420H4173.12Z" fill="white"/>
<path d="M5008.55 1440C4860.55 1440 4743.21 1397.33 4656.55 1312C4569.88 1226.67 4523.21 1105.33 4516.55 948C4515.21 934.667 4514.55 918 4514.55 898C4514.55 876.667 4515.21 860 4516.55 848C4521.88 748 4544.55 661.333 4584.55 588C4625.88 514.667 4682.55 458.667 4754.55 420C4826.55 380 4911.21 360 5008.55 360C5116.55 360 5207.21 382.667 5280.55 428C5353.88 472 5409.21 534 5446.55 614C5483.88 692.667 5502.55 784 5502.55 888V930C5502.55 943.333 5497.88 954.667 5488.55 964C5479.21 973.333 5467.21 978 5452.55 978H4788.55C4788.55 978 4788.55 980 4788.55 984C4788.55 988 4788.55 991.333 4788.55 994C4789.88 1040.67 4798.55 1084 4814.55 1124C4831.88 1162.67 4856.55 1194 4888.55 1218C4921.88 1242 4961.21 1254 5006.55 1254C5043.88 1254 5075.21 1248.67 5100.55 1238C5125.88 1226 5146.55 1212.67 5162.55 1198C5178.55 1183.33 5189.88 1171.33 5196.55 1162C5208.55 1146 5217.88 1136.67 5224.55 1134C5232.55 1130 5243.88 1128 5258.55 1128H5430.55C5443.88 1128 5454.55 1132 5462.55 1140C5471.88 1148 5475.88 1158 5474.55 1170C5473.21 1191.33 5461.88 1217.33 5440.55 1248C5420.55 1278.67 5391.21 1308.67 5352.55 1338C5313.88 1367.33 5265.21 1392 5206.55 1412C5149.21 1430.67 5083.21 1440 5008.55 1440ZM4788.55 810H5230.55V804C5230.55 752 5221.88 706.667 5204.55 668C5187.21 629.333 5161.88 598.667 5128.55 576C5095.21 553.333 5055.21 542 5008.55 542C4961.88 542 4921.88 553.333 4888.55 576C4855.21 598.667 4829.88 629.333 4812.55 668C4796.55 706.667 4788.55 752 4788.55 804V810Z" fill="white"/>
<path d="M871.297 2317C857.964 2317 846.63 2312.33 837.297 2303C827.964 2293.67 823.297 2282.33 823.297 2269V2071C823.297 2056.33 827.964 2044.33 837.297 2035C846.63 2025.67 857.964 2021 871.297 2021H1071.3C1084.63 2021 1095.96 2025.67 1105.3 2035C1114.63 2044.33 1119.3 2056.33 1119.3 2071V2269C1119.3 2282.33 1114.63 2293.67 1105.3 2303C1095.96 2312.33 1084.63 2317 1071.3 2317H871.297Z" fill="white"/>
<path d="M1506.45 2317C1493.12 2317 1481.79 2312.33 1472.45 2303C1463.12 2293.67 1458.45 2282.33 1458.45 2269V2071C1458.45 2056.33 1463.12 2044.33 1472.45 2035C1481.79 2025.67 1493.12 2021 1506.45 2021H1706.45C1719.79 2021 1731.12 2025.67 1740.45 2035C1749.79 2044.33 1754.45 2056.33 1754.45 2071V2269C1754.45 2282.33 1749.79 2293.67 1740.45 2303C1731.12 2312.33 1719.79 2317 1706.45 2317H1506.45Z" fill="#2B65EC"/>
<path d="M2141.61 2317C2128.28 2317 2116.94 2312.33 2107.61 2303C2098.28 2293.67 2093.61 2282.33 2093.61 2269V2071C2093.61 2056.33 2098.28 2044.33 2107.61 2035C2116.94 2025.67 2128.28 2021 2141.61 2021H2341.61C2354.94 2021 2366.28 2025.67 2375.61 2035C2384.94 2044.33 2389.61 2056.33 2389.61 2071V2269C2389.61 2282.33 2384.94 2293.67 2375.61 2303C2366.28 2312.33 2354.94 2317 2341.61 2317H2141.61Z" fill="white"/>
<path d="M2776.77 2317C2763.43 2317 2752.1 2312.33 2742.77 2303C2733.43 2293.67 2728.77 2282.33 2728.77 2269V2071C2728.77 2056.33 2733.43 2044.33 2742.77 2035C2752.1 2025.67 2763.43 2021 2776.77 2021H2976.77C2990.1 2021 3001.43 2025.67 3010.77 2035C3020.1 2044.33 3024.77 2056.33 3024.77 2071V2269C3024.77 2282.33 3020.1 2293.67 3010.77 2303C3001.43 2312.33 2990.1 2317 2976.77 2317H2776.77Z" fill="#2B65EC"/>
<path d="M3411.92 2317C3398.59 2317 3387.26 2312.33 3377.92 2303C3368.59 2293.67 3363.92 2282.33 3363.92 2269V2071C3363.92 2056.33 3368.59 2044.33 3377.92 2035C3387.26 2025.67 3398.59 2021 3411.92 2021H3611.92C3625.26 2021 3636.59 2025.67 3645.92 2035C3655.26 2044.33 3659.92 2056.33 3659.92 2071V2269C3659.92 2282.33 3655.26 2293.67 3645.92 2303C3636.59 2312.33 3625.26 2317 3611.92 2317H3411.92Z" fill="white"/>
<path d="M4047.08 2317C4033.74 2317 4022.41 2312.33 4013.08 2303C4003.74 2293.67 3999.08 2282.33 3999.08 2269V2071C3999.08 2056.33 4003.74 2044.33 4013.08 2035C4022.41 2025.67 4033.74 2021 4047.08 2021H4247.08C4260.41 2021 4271.74 2025.67 4281.08 2035C4290.41 2044.33 4295.08 2056.33 4295.08 2071V2269C4295.08 2282.33 4290.41 2293.67 4281.08 2303C4271.74 2312.33 4260.41 2317 4247.08 2317H4047.08Z" fill="white"/>
<path d="M4682.23 2317C4668.9 2317 4657.57 2312.33 4648.23 2303C4638.9 2293.67 4634.23 2282.33 4634.23 2269V2071C4634.23 2056.33 4638.9 2044.33 4648.23 2035C4657.57 2025.67 4668.9 2021 4682.23 2021H4882.23C4895.57 2021 4906.9 2025.67 4916.23 2035C4925.57 2044.33 4930.23 2056.33 4930.23 2071V2269C4930.23 2282.33 4925.57 2293.67 4916.23 2303C4906.9 2312.33 4895.57 2317 4882.23 2317H4682.23Z" fill="#2B65EC"/>
<path d="M5317.39 2317C5304.06 2317 5292.72 2312.33 5283.39 2303C5274.06 2293.67 5269.39 2282.33 5269.39 2269V2071C5269.39 2056.33 5274.06 2044.33 5283.39 2035C5292.72 2025.67 5304.06 2021 5317.39 2021H5517.39C5530.72 2021 5542.06 2025.67 5551.39 2035C5560.72 2044.33 5565.39 2056.33 5565.39 2071V2269C5565.39 2282.33 5560.72 2293.67 5551.39 2303C5542.06 2312.33 5530.72 2317 5517.39 2317H5317.39Z" fill="white"/>
</svg>
